<svg width="335" height="50" viewBox="0 0 335 50" fill="none" xmlns="http://www.w3.org/2000/svg">
<path d="M40.625 46.2188C35.875 48.1771 30.7396 49.1562 25.2188 49.1562C17.4271 49.1562 11.3542 47.0208 7 42.75C2.64583 38.4792 0.46875 32.5104 0.46875 24.8438C0.46875 17.1354 2.59375 11.1667 6.84375 6.9375C11.0938 2.70833 17.0938 0.59375 24.8438 0.59375C29.5521 0.59375 34.5417 1.27083 39.8125 2.625V12.1562H35.1562V11.5625C35.1562 8.79167 34.7083 7.03125 33.8125 6.28125C31.7292 4.53125 28.7812 3.65625 24.9688 3.65625C20.4271 3.65625 16.9167 5.48958 14.4375 9.15625C11.9583 12.8021 10.7188 17.9792 10.7188 24.6875C10.7188 31.5417 12.1042 36.6875 14.875 40.125C17.6667 43.5625 21.8333 45.2812 27.375 45.2812C31.2083 45.2812 35.625 44.1354 40.625 41.8438V46.2188ZM70.0938 48V41.5312C68.6979 43.9479 67.0208 45.7604 65.0625 46.9688C63.1042 48.1771 60.8646 48.7812 58.3438 48.7812C55.2812 48.7812 52.875 47.8229 51.125 45.9062C49.375 43.9896 48.5 41.3438 48.5 37.9688V22.75C48.5 19.9583 48.2917 18.2812 47.875 17.7188C47.4583 17.1354 46.1979 16.7708 44.0938 16.625L43.5 16.5938V13.6875H57.75V36.9062C57.75 39.3021 58.0625 40.9583 58.6875 41.875C59.3125 42.7708 60.4271 43.2188 62.0312 43.2188C63.5104 43.2188 64.9167 42.7917 66.25 41.9375C67.6042 41.0833 68.8854 39.8125 70.0938 38.125V22.75C70.0938 19.9583 69.8854 18.2812 69.4688 17.7188C69.0521 17.1354 67.7812 16.7708 65.6562 16.625L65.0938 16.5938V13.6875H79.3438V38.9375C79.3438 41.7292 79.5521 43.4167 79.9688 44C80.4062 44.5625 81.6771 44.9167 83.7812 45.0625L84.375 45.0938V48H70.0938ZM88.8438 46.4375V37.5938H93.0938L93.125 38.1562C93.25 40.7396 93.6458 42.3958 94.3125 43.125C95.9792 44.9583 98.4479 45.875 101.719 45.875C103.302 45.875 104.635 45.3646 105.719 44.3438C106.823 43.3229 107.375 42.0625 107.375 40.5625C107.375 38.25 105.427 36.3229 101.531 34.7812L98.6875 33.6562C92.125 31.0521 88.8438 27.5417 88.8438 23.125C88.8438 20 90.1042 17.5208 92.625 15.6875C95.1667 13.8333 98.5938 12.9062 102.906 12.9062C106.323 12.9062 109.885 13.4479 113.594 14.5312V22.75H109.344L109.312 22.1562L109.25 20.6562C109.25 17.4271 107.365 15.8125 103.594 15.8125C101.948 15.8125 100.552 16.3438 99.4062 17.4062C98.2604 18.4688 97.6875 19.7708 97.6875 21.3125C97.6875 22.6042 98.1042 23.625 98.9375 24.375C99.7917 25.1042 101.531 25.9688 104.156 26.9688L106.969 28.0625C113.365 30.5208 116.562 33.8125 116.562 37.9375C116.562 41.0833 115.208 43.6771 112.5 45.7188C109.792 47.7604 106.354 48.7812 102.188 48.7812C97.0208 48.7812 92.5729 48 88.8438 46.4375ZM142.188 47.7188C140.25 48.4271 138.354 48.7812 136.5 48.7812C132.646 48.7812 129.75 47.8333 127.812 45.9375C125.896 44.0208 124.938 41.1562 124.938 37.3438V16.7812H120.688V13.6875H124.938V7.90625L134.188 6.28125V13.6875H141.781V16.7812H134.188V37.5625C134.188 40.625 134.49 42.6458 135.094 43.625C135.698 44.6042 136.948 45.0938 138.844 45.0938C139.885 45.0938 141 44.8542 142.188 44.375V47.7188ZM163.594 48.7812C158.052 48.7812 153.688 47.1875 150.5 44C147.333 40.7917 145.75 36.4062 145.75 30.8438C145.75 25.2812 147.333 20.9062 150.5 17.7188C153.688 14.5104 158.052 12.9062 163.594 12.9062C169.115 12.9062 173.458 14.5104 176.625 17.7188C179.812 20.9062 181.406 25.2812 181.406 30.8438C181.406 36.4062 179.812 40.7917 176.625 44C173.458 47.1875 169.115 48.7812 163.594 48.7812ZM163.594 45.5C166.135 45.5 168.031 44.2812 169.281 41.8438C170.552 39.3854 171.188 35.7188 171.188 30.8438C171.188 25.9479 170.552 22.2812 169.281 19.8438C168.031 17.4062 166.135 16.1875 163.594 16.1875C161.052 16.1875 159.146 17.4062 157.875 19.8438C156.604 22.2812 155.969 25.9479 155.969 30.8438C155.969 35.7188 156.604 39.3854 157.875 41.8438C159.146 44.2812 161.052 45.5 163.594 45.5ZM196.469 20.4375C198.26 18.0625 200.125 16.2812 202.062 15.0938C204.021 13.9062 206.062 13.3125 208.188 13.3125C210.667 13.3125 212.635 13.9062 214.094 15.0938C215.552 16.2812 216.49 18.0625 216.906 20.4375C218.885 18.0625 220.885 16.2812 222.906 15.0938C224.927 13.9062 226.958 13.3125 229 13.3125C235.083 13.3125 238.125 16.6458 238.125 23.3125V39.9062C238.125 42.7396 238.344 44.4271 238.781 44.9688C239.24 45.4896 240.75 45.8438 243.312 46.0312L243.906 46.0625V48H226.156V46.0625L226.75 46.0312C229.312 45.8438 230.812 45.4896 231.25 44.9688C231.708 44.4271 231.938 42.7396 231.938 39.9062V24.4375C231.938 21.75 231.583 19.8958 230.875 18.875C230.188 17.8333 228.948 17.3125 227.156 17.3125C225.656 17.3125 224.083 17.75 222.438 18.625C220.812 19.5 219.104 20.8125 217.312 22.5625V39.9062C217.312 42.7188 217.542 44.4062 218 44.9688C218.458 45.5104 219.958 45.8646 222.5 46.0312L223.094 46.0625V48H205.344V46.0625L205.938 46.0312C208.5 45.8646 210 45.5104 210.438 44.9688C210.896 44.4271 211.125 42.7396 211.125 39.9062V24.4375C211.125 21.7917 210.781 19.9479 210.094 18.9062C209.406 17.8438 208.198 17.3125 206.469 17.3125C204.844 17.3125 203.198 17.75 201.531 18.625C199.865 19.5 198.177 20.8125 196.469 22.5625V39.9062C196.469 42.7396 196.698 44.4271 197.156 44.9688C197.615 45.5104 199.125 45.8646 201.688 46.0312L202.281 46.0625V48H184.531V46.0625L185.125 46.0312C187.646 45.8646 189.135 45.5104 189.594 44.9688C190.073 44.4062 190.312 42.7188 190.312 39.9062V22.1562C190.312 19.3438 190.073 17.6667 189.594 17.125C189.135 16.5833 187.646 16.2188 185.125 16.0312L184.531 16V14.0625H196.469V20.4375ZM268 43.3438C264.333 46.9688 260.708 48.7812 257.125 48.7812C254.25 48.7812 251.854 47.875 249.938 46.0625C248.021 44.2292 247.062 41.9375 247.062 39.1875C247.062 35.9792 248.312 33.375 250.812 31.375C253.667 29.0833 258.5 27.9375 265.312 27.9375H266.594V23.7188C266.594 18.3646 264.562 15.6875 260.5 15.6875C258.604 15.6875 256.927 16.2708 255.469 17.4375C254.615 18.1458 254.073 19.5938 253.844 21.7812L253.812 22.375H249.625V16.1562C253.958 14.2604 257.979 13.3125 261.688 13.3125C269.062 13.3125 272.75 16.6979 272.75 23.4688V38.5938C272.75 41.3021 272.979 43.2083 273.438 44.3125C273.917 45.4167 274.74 45.9688 275.906 45.9688C276.323 45.9688 276.875 45.875 277.562 45.6875L277.75 48C276.271 48.5208 274.948 48.7812 273.781 48.7812C270.74 48.7812 268.812 46.9688 268 43.3438ZM266.594 42.6562V29.875H265.156C261.531 29.875 258.698 30.625 256.656 32.125C254.615 33.625 253.594 35.6875 253.594 38.3125C253.594 40.2708 254.229 41.8958 255.5 43.1875C256.771 44.4792 258.354 45.125 260.25 45.125C262.042 45.125 264.156 44.3021 266.594 42.6562ZM301.219 47.8125C299.656 48.4583 298.167 48.7812 296.75 48.7812C293.146 48.7812 290.51 47.875 288.844 46.0625C287.198 44.25 286.375 41.3646 286.375 37.4062V16.5938H281.375V14.0625H286.375V7.90625L292.562 6.375V14.0625H302V16.5938H292.562V38.2188C292.562 41.1354 292.948 43.2083 293.719 44.4375C294.49 45.6667 295.802 46.2812 297.656 46.2812C298.635 46.2812 299.823 45.9583 301.219 45.3125V47.8125ZM334.375 46.4688C330.458 48.0104 326.885 48.7812 323.656 48.7812C318.677 48.7812 314.625 47.1042 311.5 43.75C308.396 40.3958 306.844 36.0417 306.844 30.6875C306.844 25.6042 308.24 21.4375 311.031 18.1875C313.823 14.9375 317.406 13.3125 321.781 13.3125C325.823 13.3125 328.927 14.6771 331.094 17.4062C333.281 20.1354 334.375 24.0312 334.375 29.0938V29.6875H313.656C313.656 34.9583 314.573 38.9375 316.406 41.625C318.26 44.3125 321 45.6562 324.625 45.6562C328.438 45.6562 331.688 44.875 334.375 43.3125V46.4688ZM313.781 27.75H327.844L327.875 26.375C327.875 22.4375 327.365 19.5938 326.344 17.8438C325.323 16.0938 323.656 15.2188 321.344 15.2188C319.031 15.2188 317.188 16.3542 315.812 18.625C314.458 20.8958 313.781 23.9375 313.781 27.75Z" fill="#FF4500"/>
</svg>
